<svg xmlns="http://www.w3.org/2000/svg" xmlns:xlink="http://www.w3.org/1999/xlink" width="205" height="24" viewBox="0 0 205 24">
    <defs>
        <path id="a" d="M.273.152h15.284V16.4H.273z"/>
        <path id="c" d="M0 23.6h204.468V.28H0z"/>
    </defs>
    <g fill="none" fill-rule="evenodd">
        <path fill="#FFF" d="M184.493 23.408h19.975v-3.27h-19.975z"/>
        <g transform="translate(0 .12)">
            <path fill="#FFF" d="M73.216 8.988c1.033 1.091 1.549 2.562 1.549 4.413v9.965h-5.202V14.89c0-.896-.234-1.602-.702-2.118-.467-.517-1.1-.775-1.9-.775-.915.02-1.64.356-2.176 1.008-.536.653-.804 1.505-.804 2.557v7.803H58.78V14.89c0-.896-.235-1.602-.702-2.118-.468-.517-1.1-.775-1.9-.775-.915.02-1.645.356-2.191 1.008-.546.653-.818 1.505-.818 2.557v7.803h-5.172V7.556h3.425l1.747 2.601c.545-.916 1.251-1.612 2.118-2.09.867-.477 1.875-.715 3.025-.715 1.286 0 2.387.311 3.303.935.915.624 1.568 1.49 1.957 2.6.507-1.168 1.233-2.05 2.178-2.644.944-.594 2.06-.891 3.345-.891 1.714 0 3.088.545 4.12 1.636"/>
            <g transform="translate(76.8 7.2)">
                <mask id="b" fill="#fff">
                    <use xlink:href="#a"/>
                </mask>
                <path fill="#FFF" d="M9.332 12.294c.585-.38.955-.872 1.11-1.476V9.445H7.346c-1.461 0-2.192.544-2.192 1.636 0 .546.19.98.57 1.3.38.322.9.483 1.564.483.778 0 1.46-.191 2.045-.57m4.384-10.638c1.207 1.004 1.82 2.411 1.84 4.223v10.287h-3.89l-1.223-1.783C9.39 15.727 7.803 16.4 5.679 16.4c-1.675 0-2.995-.453-3.96-1.36-.964-.905-1.446-2.099-1.446-3.579 0-1.5.52-2.669 1.564-3.507 1.042-.837 2.537-1.266 4.485-1.285h4.12v-.176c0-.76-.258-1.344-.773-1.754-.517-.409-1.262-.613-2.236-.613-.662 0-1.408.107-2.236.321-.828.215-1.661.526-2.498.936L1.266 1.875C2.552 1.291 3.785.858 4.963.575 6.141.293 7.364.152 8.631.152c2.182 0 3.876.501 5.085 1.504" mask="url(#b)"/>
            </g>
            <path fill="#FFF" d="M102.965 11.677c-.935 0-1.695.355-2.28 1.066-.584.711-.876 1.632-.876 2.762 0 1.15.292 2.074.876 2.776.585.701 1.345 1.052 2.28 1.052 1.441 0 2.474-.594 3.098-1.782l3.827 2.191c-.623 1.209-1.559 2.143-2.805 2.805-1.247.663-2.708.994-4.384.994-1.616 0-3.039-.33-4.266-.994a6.985 6.985 0 0 1-2.85-2.805c-.672-1.208-1.007-2.61-1.007-4.208 0-1.617.34-3.044 1.022-4.281a7.082 7.082 0 0 1 2.879-2.864c1.237-.672 2.664-1.008 4.28-1.008 1.58 0 2.982.326 4.21.979a7.045 7.045 0 0 1 2.863 2.761l-3.77 2.192c-.74-1.09-1.773-1.636-3.097-1.636M127.06 8.988c1.041 1.091 1.563 2.562 1.563 4.413v9.965h-5.202V14.89c0-.896-.239-1.602-.716-2.118-.478-.517-1.135-.775-1.973-.775-.955.02-1.71.356-2.265 1.008-.554.653-.833 1.505-.833 2.557v7.803h-5.2V1.682h5.2v8.446c.566-.915 1.291-1.607 2.178-2.075.886-.468 1.904-.701 3.054-.701 1.753 0 3.151.545 4.193 1.636"/>
            <mask id="d" fill="#fff">
                <use xlink:href="#c"/>
            </mask>
            <path fill="#FFF" d="M132.13 23.366h5.172V7.556h-5.172v15.81zm4.514-22.312c.516.516.774 1.183.774 2.002 0 .799-.258 1.46-.774 1.987-.516.526-1.174.789-1.973.789-.799 0-1.456-.263-1.972-.79-.517-.525-.775-1.187-.775-1.986 0-.819.258-1.486.775-2.002.516-.516 1.173-.774 1.972-.774.8 0 1.457.258 1.973.774zM155.873 8.988c1.042 1.091 1.563 2.562 1.563 4.413v9.965h-5.172V14.89c0-.896-.244-1.602-.731-2.118-.487-.517-1.14-.775-1.957-.775-.858.02-1.564.303-2.12.847-.555.546-.881 1.267-.978 2.163v8.358h-5.202V7.556h3.426l1.776 2.572c.564-.915 1.29-1.607 2.176-2.075.887-.468 1.905-.701 3.055-.701 1.733 0 3.121.545 4.164 1.636M170.879 14.073c0-.916-.268-1.651-.804-2.206-.536-.556-1.242-.833-2.119-.833-.818 0-1.505.273-2.06.818-.555.546-.92 1.286-1.096 2.22h6.079zm2.98-4.413c1.383 1.52 2.076 3.605 2.076 6.254 0 .41-.01.721-.03.935h-10.988c.253.896.692 1.583 1.316 2.06.623.478 1.382.716 2.279.716.681 0 1.339-.136 1.972-.409a5.573 5.573 0 0 0 1.739-1.198l2.718 2.718a8 8 0 0 1-2.967 2.09c-1.159.477-2.469.716-3.93.716-1.695 0-3.175-.332-4.442-.995-1.267-.662-2.235-1.597-2.907-2.805-.673-1.208-1.008-2.61-1.008-4.208 0-1.617.34-3.044 1.022-4.28a7.059 7.059 0 0 1 2.893-2.865c1.247-.672 2.689-1.008 4.325-1.008 2.572 0 4.549.76 5.932 2.279zM1.393 13.05l.105.744.13-.744.83-3.314h.572l.826 3.314.14.816.13-.816.575-3.314h.788l-1.105 5.196h-.7l-.812-3.184-.135-.807-.13.807-.802 3.184h-.7L0 9.736h.787zM8.688 10.37a1.327 1.327 0 0 0-.942.387 1.662 1.662 0 0 0-.324.466 2.241 2.241 0 0 0-.185.636h2.795v-.067a1.985 1.985 0 0 0-.098-.514 1.442 1.442 0 0 0-.248-.457 1.232 1.232 0 0 0-.41-.326 1.287 1.287 0 0 0-.588-.125m.115 4.659c-.365 0-.7-.063-1.007-.188a2.284 2.284 0 0 1-1.294-1.32 2.697 2.697 0 0 1-.182-1.004v-.202c0-.42.067-.795.202-1.126a2.59 2.59 0 0 1 .535-.84c.222-.23.476-.405.758-.526.285-.122.575-.183.873-.183.374 0 .702.065.981.195.28.13.514.308.7.538.185.229.324.498.414.809.093.31.137.647.137 1.008v.399H7.208c.01.237.056.46.137.667.083.208.194.39.336.545a1.567 1.567 0 0 0 1.17.502c.317 0 .598-.064.845-.192a1.84 1.84 0 0 0 .615-.509l.542.423a2.091 2.091 0 0 1-.323.377c-.131.12-.28.227-.45.319-.17.093-.362.167-.576.224a2.773 2.773 0 0 1-.701.084M12.549 7.556h2.656v6.608H16.9v.768h-4.351v-.768h1.767V8.329h-1.767zM20.525 14.308a1.443 1.443 0 0 0 .874-.29c.118-.092.214-.199.285-.322a.802.802 0 0 0 .114-.401h.84a1.38 1.38 0 0 1-.18.66c-.117.21-.273.394-.468.552-.195.16-.42.285-.673.38a2.244 2.244 0 0 1-.792.141c-.394 0-.738-.07-1.032-.211-.295-.14-.54-.33-.738-.569a2.458 2.458 0 0 1-.444-.826 3.253 3.253 0 0 1-.148-.987v-.202c0-.342.05-.67.148-.984.1-.314.248-.59.444-.829.198-.238.443-.428.738-.569.294-.14.638-.21 1.032-.21.308 0 .59.048.848.145.258.098.48.23.667.4a1.79 1.79 0 0 1 .598 1.337h-.84a1.064 1.064 0 0 0-.104-.445 1.202 1.202 0 0 0-.667-.617 1.367 1.367 0 0 0-.502-.09 1.35 1.35 0 0 0-.694.165c-.186.11-.338.254-.454.432a1.83 1.83 0 0 0-.247.598c-.05.22-.074.443-.074.667v.202c0 .227.025.453.074.675.05.222.131.422.245.6.114.178.264.322.452.432.186.11.42.166.698.166M24.852 12.392c0 .256.03.5.092.732.06.232.152.436.276.613.123.176.278.315.463.417.185.103.401.154.648.154a1.295 1.295 0 0 0 1.102-.571c.124-.177.216-.38.277-.613.06-.232.09-.476.09-.732v-.106c0-.253-.03-.495-.092-.727a1.976 1.976 0 0 0-.28-.613 1.289 1.289 0 0 0-1.107-.576c-.246 0-.46.052-.643.156a1.4 1.4 0 0 0-.458.42c-.124.177-.216.38-.276.613a2.86 2.86 0 0 0-.092.727v.106zm-.888-.106c0-.375.054-.723.163-1.044.109-.322.265-.601.469-.838.202-.237.45-.424.741-.56.291-.136.62-.204.985-.204.368 0 .698.068.992.204.292.136.54.323.744.56.203.237.36.516.468.838.108.321.163.67.163 1.044v.106c0 .375-.055.722-.163 1.042-.108.32-.265.6-.468.835-.203.237-.451.423-.742.558-.291.134-.62.201-.985.201-.368 0-.698-.067-.992-.201a2.15 2.15 0 0 1-.743-.558 2.493 2.493 0 0 1-.469-.835 3.217 3.217 0 0 1-.163-1.042v-.106zM30.524 9.736l.024.49c.106-.182.244-.325.415-.427.172-.103.38-.155.622-.159.478 0 .796.186.956.557.103-.166.237-.3.406-.4.167-.102.372-.153.612-.157.381 0 .674.117.879.35.204.235.307.588.307 1.062v3.88H33.9v-3.89c0-.435-.2-.651-.6-.648a.78.78 0 0 0-.274.043.547.547 0 0 0-.192.118.546.546 0 0 0-.12.173.75.75 0 0 0-.058.204v4h-.845v-3.895c0-.207-.046-.368-.14-.48-.092-.112-.24-.166-.441-.163-.186 0-.33.037-.432.11a.638.638 0 0 0-.226.293v4.135h-.845V9.736h.797zM38.198 10.37a1.33 1.33 0 0 0-.941.387 1.662 1.662 0 0 0-.325.466 2.241 2.241 0 0 0-.184.636h2.795v-.067a1.985 1.985 0 0 0-.098-.514 1.442 1.442 0 0 0-.248-.457 1.232 1.232 0 0 0-.411-.326 1.287 1.287 0 0 0-.588-.125m.115 4.659c-.365 0-.7-.063-1.006-.188a2.284 2.284 0 0 1-1.294-1.32 2.697 2.697 0 0 1-.182-1.004v-.202c0-.42.067-.795.201-1.126a2.59 2.59 0 0 1 .535-.84c.223-.23.476-.405.759-.526.284-.122.574-.183.872-.183.375 0 .702.065.982.195s.513.308.699.538c.185.229.325.498.415.809.092.31.137.647.137 1.008v.399h-3.712c.01.237.056.46.136.667.083.208.194.39.336.545a1.567 1.567 0 0 0 1.17.502c.317 0 .599-.064.846-.192a1.84 1.84 0 0 0 .614-.509l.543.423a2.091 2.091 0 0 1-.324.377c-.13.12-.28.227-.45.319-.169.093-.361.167-.575.224a2.773 2.773 0 0 1-.702.084M8.61 16.815v1.259h1.979v.687H8.611v2.823c0 .202.025.369.076.5.051.13.122.236.212.314a.772.772 0 0 0 .309.166c.117.032.241.048.373.048.096 0 .195-.006.298-.017a5.547 5.547 0 0 0 .783-.137l.124.63a1.247 1.247 0 0 1-.269.117 3.056 3.056 0 0 1-.346.086 4.38 4.38 0 0 1-.812.074c-.23 0-.445-.032-.644-.098-.201-.065-.375-.169-.522-.312a1.497 1.497 0 0 1-.349-.552 2.334 2.334 0 0 1-.127-.819v-2.823H6.353v-.687h1.364v-1.259h.894zM13.048 20.73c0 .255.03.5.091.732.06.232.153.436.277.612.123.176.277.315.463.418.185.102.401.153.648.153a1.294 1.294 0 0 0 1.102-.571c.124-.176.216-.38.277-.612.06-.232.09-.477.09-.733v-.105a2.84 2.84 0 0 0-.092-.728 1.984 1.984 0 0 0-.279-.612 1.408 1.408 0 0 0-.461-.42 1.292 1.292 0 0 0-.646-.157 1.28 1.28 0 0 0-.644.156 1.402 1.402 0 0 0-.458.42c-.124.177-.216.381-.277.613-.06.232-.09.475-.09.728v.105zm-.889-.106c0-.375.055-.723.164-1.045.108-.322.265-.601.468-.838a2.18 2.18 0 0 1 .742-.56 2.3 2.3 0 0 1 .985-.203c.367 0 .698.068.992.204.292.136.54.323.743.559.204.237.36.516.47.838.107.322.162.67.162 1.045v.105c0 .375-.055.722-.163 1.042-.109.32-.265.6-.469.836-.202.237-.45.422-.741.557-.291.135-.62.202-.985.202-.368 0-.698-.067-.992-.202a2.155 2.155 0 0 1-.744-.557 2.497 2.497 0 0 1-.468-.836 3.219 3.219 0 0 1-.164-1.042v-.105zM26.317 16.815v1.259h1.978v.687h-1.978v2.823c0 .202.026.369.077.5.05.13.122.236.211.314a.77.77 0 0 0 .31.166c.117.032.24.048.372.048.096 0 .195-.006.298-.017a5.547 5.547 0 0 0 .783-.137l.124.63a1.247 1.247 0 0 1-.268.117 3.056 3.056 0 0 1-.346.086 4.374 4.374 0 0 1-.812.074c-.23 0-.445-.032-.645-.098-.2-.065-.375-.169-.522-.312a1.493 1.493 0 0 1-.348-.552 2.343 2.343 0 0 1-.127-.819v-2.823H24.06v-.687h1.364v-1.259h.893zM31.004 18.847c.186-.273.415-.484.687-.637.271-.152.578-.23.917-.232.272 0 .52.039.742.117.222.079.412.201.57.368.156.166.276.377.362.631.084.255.127.556.127.905v3.271h-.889v-3.28c0-.426-.101-.743-.304-.951-.204-.208-.494-.31-.872-.307-.285 0-.544.07-.776.208-.232.14-.42.324-.564.555v3.775h-.888v-7.377h.888v2.954zM38.198 18.707a1.33 1.33 0 0 0-.941.387 1.662 1.662 0 0 0-.325.466 2.241 2.241 0 0 0-.184.636h2.795v-.067a1.985 1.985 0 0 0-.098-.514 1.446 1.446 0 0 0-.248-.456 1.232 1.232 0 0 0-.411-.327 1.287 1.287 0 0 0-.588-.125m.115 4.659c-.365 0-.7-.063-1.006-.187a2.285 2.285 0 0 1-1.294-1.321 2.697 2.697 0 0 1-.182-1.004v-.202c0-.419.067-.795.201-1.126.135-.33.313-.61.535-.84.223-.229.476-.405.759-.526.284-.121.574-.183.872-.183.375 0 .702.065.982.195s.513.31.699.538c.185.23.325.498.415.81.092.31.137.646.137 1.007v.4h-3.712c.01.236.056.459.136.667.083.207.194.39.336.545a1.567 1.567 0 0 0 1.17.502c.317 0 .599-.064.846-.192a1.84 1.84 0 0 0 .614-.51l.543.423c-.087.131-.195.257-.324.377-.13.12-.28.227-.45.32-.169.092-.361.166-.575.223a2.773 2.773 0 0 1-.702.084" mask="url(#d)"/>
        </g>
    </g>
</svg>
