<?xml version="1.0" encoding="UTF-8"?>
<svg width="40px" height="40px" viewBox="0 0 40 40" version="1.1" xmlns="http://www.w3.org/2000/svg" xmlns:xlink="http://www.w3.org/1999/xlink">
    <!-- Generator: Sketch 47.1 (45422) - http://www.bohemiancoding.com/sketch -->
    <title>coffee</title>
    <desc>Created with Sketch.</desc>
    <defs></defs>
    <g id="Page-1" stroke="none" stroke-width="1" fill="none" fill-rule="evenodd">
        <g id="coffee" fill-rule="nonzero" fill="#000000">
            <path d="M31.3333333,12.2222222 L27.9333333,12.2222222 L27.9333333,11.1111111 C27.9333333,10.4977778 27.4256,10 26.8,10 L4.13333333,10 C3.50773333,10 3,10.4977778 3,11.1111111 L3,20 C3,25.5133333 7.5764,30 13.2,30 L17.7333333,30 C22.1601333,30 25.8978667,27.2044444 27.3077333,23.3333333 L31.3333333,23.3333333 C32.8633333,23.3333333 34.2868,22.7488889 35.3204,21.7088889 C36.4038667,20.6733333 37,19.2777778 37,17.7777778 C37,14.7155556 34.4590667,12.2222222 31.3333333,12.2222222 Z M25.6666667,20 C25.6666667,24.2888889 22.108,27.7777778 17.7333333,27.7777778 L13.2,27.7777778 C8.82533333,27.7777778 5.26666667,24.2888889 5.26666667,20 L5.26666667,12.2222222 L25.6666667,12.2222222 L25.6666667,20 Z M33.7178667,20.1355556 C33.0922667,20.7644444 32.2445333,21.1111111 31.3333333,21.1111111 L27.8177333,21.1111111 C27.8608,20.7422222 27.9333333,20.38 27.9333333,20 L27.9333333,14.4444444 L31.3333333,14.4444444 C33.2078667,14.4444444 34.7333333,15.94 34.7333333,17.7777778 C34.7333333,18.6733333 34.3797333,19.5022222 33.7178667,20.1355556 Z" id="Shape"></path>
        </g>
    </g>
</svg>