<?xml version="1.0" encoding="UTF-8"?>
<svg width="40px" height="40px" viewBox="0 0 40 40" version="1.1" xmlns="http://www.w3.org/2000/svg" xmlns:xlink="http://www.w3.org/1999/xlink">
    <!-- Generator: Sketch 47.1 (45422) - http://www.bohemiancoding.com/sketch -->
    <title>participants</title>
    <desc>Created with Sketch.</desc>
    <defs></defs>
    <g id="Page-1" stroke="none" stroke-width="1" fill="none" fill-rule="evenodd">
        <g id="participants" fill-rule="nonzero" fill="#000000">
            <path d="M19.9706897,3 C10.6206897,3 3,10.6536797 3,20.0441558 L3,21.3982684 L3,24.047619 L3,35.7930736 C3,36.4701299 3.52758621,37 4.20172414,37 L10.3862069,37 C11.0603448,37 11.587931,36.4701299 11.587931,35.7930736 L11.587931,21.3982684 C11.587931,20.7212121 11.0603448,20.191342 10.3862069,20.191342 L5.40344828,20.191342 L5.40344828,20.0441558 C5.40344828,11.978355 11.9396552,5.38441558 20,5.38441558 C28.0603448,5.38441558 34.5965517,11.9489177 34.5965517,20.0441558 L34.5965517,20.191342 L29.6137931,20.191342 C28.9396552,20.191342 28.412069,20.7212121 28.412069,21.3982684 L28.412069,35.7930736 C28.412069,36.4701299 28.9396552,37 29.6137931,37 L35.7982759,37 C36.4724138,37 37,36.4701299 37,35.7930736 L37,24.047619 L37,21.3982684 L37,20.0441558 C36.9413793,10.6536797 29.3206897,3 19.9706897,3 Z M9.66666667,22.3626732 L9.66666667,34.3333333 L5.66666667,34.3333333 L5.66666667,23.800326 L5.66666667,22.3333333 L9.66666667,22.3333333 L9.66666667,22.3626732 Z M35,23.7780508 L35,34.3333333 L31,34.3333333 L31,22.3333333 L35,22.3333333 L35,23.7780508 Z" id="Shape"></path>
        </g>
    </g>
</svg>