<?xml version="1.0" encoding="UTF-8"?>
<svg width="40px" height="40px" viewBox="0 0 40 40" version="1.1" xmlns="http://www.w3.org/2000/svg" xmlns:xlink="http://www.w3.org/1999/xlink">
    <!-- Generator: Sketch 47.1 (45422) - http://www.bohemiancoding.com/sketch -->
    <title>speakers</title>
    <desc>Created with Sketch.</desc>
    <defs></defs>
    <g id="Page-1" stroke="none" stroke-width="1" fill="none" fill-rule="evenodd">
        <g id="speakers" fill-rule="nonzero" fill="#000000">
            <path d="M20.390476,24.4869888 C24.7461232,24.4869888 28.2761903,21.091447 28.2761903,16.9353038 L28.2761903,16.2018667 L28.2761903,10.5245207 C28.2761903,6.36837752 24.7461232,3 20.390476,3 C16.0348287,3 12.5047617,6.36837752 12.5047617,10.5245207 L12.5047617,16.2018667 L12.5047617,16.9353038 C12.5047617,21.091447 16.0348287,24.4869888 20.390476,24.4869888 Z M14.6952379,10.4729085 C14.6952379,7.53916035 17.2004468,5.14869888 20.2750213,5.14869888 C23.3495958,5.14869888 25.8548047,7.53916035 25.8548047,10.4729085 L25.8548047,16.1502545 C25.8548047,19.0840027 23.3495958,21.4744641 20.2750213,21.4744641 C17.2004468,21.4744641 14.6952379,19.0840027 14.6952379,16.1502545 L14.6952379,10.4729085 Z M32,19.1690829 L32,19.1690829 C32,24.8100366 27.4811083,29.4603838 21.6876574,30.0382376 L21.6876574,34.7436185 L27.8287154,34.7436185 C28.4949622,34.7436185 29.0163728,35.2389218 29.0163728,35.8718093 C29.0163728,36.5046967 28.4949622,37 27.8287154,37 L12.6788413,37 C12.0125945,37 11.4911839,36.5046967 11.4911839,35.8718093 C11.4911839,35.2389218 12.0125945,34.7436185 12.6788413,34.7436185 L19.3123426,34.7436185 L19.3123426,30.0382376 C13.5188917,29.4603838 9,24.8100366 9,19.1690829 C9,18.5361954 9.52141058,18.0408922 10.1876574,18.0408922 C10.8539043,18.0408922 11.3753149,18.5361954 11.3753149,19.1690829 C11.3753149,23.9570144 15.4596977,27.8368898 20.5,27.8368898 C25.5403023,27.8368898 29.6246851,23.9570144 29.6246851,19.1690829 C29.6246851,18.5361954 30.1460957,18.0408922 30.8123426,18.0408922 C31.4785894,18.0408922 32,18.5361954 32,19.1690829 Z" id="Shape"></path>
        </g>
    </g>
</svg>